<?xml version="1.0" encoding="UTF-8" standalone="no"?>
<svg
   xmlns:dc="http://purl.org/dc/elements/1.1/"
   xmlns:cc="http://creativecommons.org/ns#"
   xmlns:rdf="http://www.w3.org/1999/02/22-rdf-syntax-ns#"
   xmlns:svg="http://www.w3.org/2000/svg"
   xmlns="http://www.w3.org/2000/svg"
   xmlns:xlink="http://www.w3.org/1999/xlink"
   xmlns:sodipodi="http://sodipodi.sourceforge.net/DTD/sodipodi-0.dtd"
   xmlns:inkscape="http://www.inkscape.org/namespaces/inkscape"
   inkscape:export-ydpi="483.70901"
   inkscape:export-xdpi="483.70901"
   inkscape:export-filename="C:\Users\Prakhar\Pictures\inkscape projects\robot.png"
   sodipodi:docname="robot.svg"
   inkscape:version="1.0 (4035a4fb49, 2020-05-01)"
   id="svg8"
   version="1.1"
   viewBox="0 0 210 297"
   height="297mm"
   width="210mm">
  <defs
     id="defs2">
    <linearGradient
       id="linearGradient1173"
       inkscape:collect="always">
      <stop
         id="stop1169"
         offset="0"
         style="stop-color:#d3d3d3;stop-opacity:1" />
      <stop
         id="stop1171"
         offset="1"
         style="stop-color:#f0f0f0;stop-opacity:1" />
    </linearGradient>
    <linearGradient
       id="linearGradient1138"
       inkscape:collect="always">
      <stop
         id="stop1134"
         offset="0"
         style="stop-color:#e1e1e1;stop-opacity:1" />
      <stop
         style="stop-color:#f6f6f6;stop-opacity:1"
         offset="0.26711503"
         id="stop1142" />
      <stop
         id="stop1144"
         offset="0.60281926"
         style="stop-color:#cecece;stop-opacity:1" />
      <stop
         style="stop-color:#777777;stop-opacity:1"
         offset="0.85573989"
         id="stop1146" />
      <stop
         id="stop1136"
         offset="1"
         style="stop-color:#5c5c5c;stop-opacity:1" />
    </linearGradient>
    <linearGradient
       id="linearGradient1119"
       inkscape:collect="always">
      <stop
         id="stop1115"
         offset="0"
         style="stop-color:#fdfdfd;stop-opacity:1" />
      <stop
         style="stop-color:#efefef;stop-opacity:1"
         offset="0.35362211"
         id="stop1210" />
      <stop
         style="stop-color:#e0e0e0;stop-opacity:1"
         offset="0.6667186"
         id="stop1208" />
      <stop
         id="stop1117"
         offset="1"
         style="stop-color:#c3c3c3;stop-opacity:1" />
    </linearGradient>
    <linearGradient
       id="linearGradient1082"
       inkscape:collect="always">
      <stop
         id="stop1078"
         offset="0"
         style="stop-color:#ffffff;stop-opacity:1" />
      <stop
         id="stop1080"
         offset="1"
         style="stop-color:#27d3f5;stop-opacity:1" />
    </linearGradient>
    <linearGradient
       id="linearGradient1054"
       inkscape:collect="always">
      <stop
         id="stop1050"
         offset="0"
         style="stop-color:#ffffff;stop-opacity:1" />
      <stop
         style="stop-color:#ebebeb;stop-opacity:1"
         offset="0.66777885"
         id="stop1058" />
      <stop
         id="stop1052"
         offset="1"
         style="stop-color:#cfcfcf;stop-opacity:1" />
    </linearGradient>
    <linearGradient
       id="linearGradient1016"
       inkscape:collect="always">
      <stop
         id="stop1012"
         offset="0"
         style="stop-color:#cbcbcb;stop-opacity:1" />
      <stop
         id="stop1014"
         offset="1"
         style="stop-color:#f7f7f7;stop-opacity:0" />
    </linearGradient>
    <linearGradient
       id="linearGradient1000"
       inkscape:collect="always">
      <stop
         id="stop996"
         offset="0"
         style="stop-color:#ffffff;stop-opacity:1" />
      <stop
         style="stop-color:#a3a3a3;stop-opacity:1"
         offset="0.39999953"
         id="stop1006" />
      <stop
         style="stop-color:#616161;stop-opacity:1"
         offset="0.7300002"
         id="stop1004" />
      <stop
         id="stop998"
         offset="1"
         style="stop-color:#000000;stop-opacity:1" />
    </linearGradient>
    <linearGradient
       id="linearGradient985"
       inkscape:collect="always">
      <stop
         id="stop981"
         offset="0"
         style="stop-color:#fbfbfb;stop-opacity:1" />
      <stop
         style="stop-color:#d3d3d3;stop-opacity:1"
         offset="0.67219675"
         id="stop989" />
      <stop
         id="stop983"
         offset="1"
         style="stop-color:#bfbfbf;stop-opacity:1" />
    </linearGradient>
    <linearGradient
       id="linearGradient972"
       inkscape:collect="always">
      <stop
         id="stop968"
         offset="0"
         style="stop-color:#ffffff;stop-opacity:1" />
      <stop
         style="stop-color:#cfcfcf;stop-opacity:1"
         offset="0.37311465"
         id="stop976" />
      <stop
         id="stop970"
         offset="1"
         style="stop-color:#000000;stop-opacity:1" />
    </linearGradient>
    <linearGradient
       id="linearGradient944"
       inkscape:collect="always">
      <stop
         id="stop940"
         offset="0"
         style="stop-color:#ffffff;stop-opacity:1;" />
      <stop
         style="stop-color:#ffffff;stop-opacity:1"
         offset="0.62732118"
         id="stop948" />
      <stop
         id="stop942"
         offset="1"
         style="stop-color:#d0f2fc;stop-opacity:1" />
    </linearGradient>
    <linearGradient
       id="linearGradient914"
       inkscape:collect="always">
      <stop
         id="stop910"
         offset="0"
         style="stop-color:#ffffff;stop-opacity:1" />
      <stop
         style="stop-color:#79d5fc;stop-opacity:1"
         offset="0.53295612"
         id="stop918" />
      <stop
         id="stop912"
         offset="1"
         style="stop-color:#25abf1;stop-opacity:1" />
    </linearGradient>
    <linearGradient
       id="linearGradient894"
       inkscape:collect="always">
      <stop
         id="stop890"
         offset="0"
         style="stop-color:#ffffff;stop-opacity:1" />
      <stop
         style="stop-color:#f3f3f3;stop-opacity:1"
         offset="0.36447152"
         id="stop900" />
      <stop
         style="stop-color:#e5e5e5;stop-opacity:1"
         offset="0.69275868"
         id="stop898" />
      <stop
         id="stop892"
         offset="1"
         style="stop-color:#cdcdcd;stop-opacity:1" />
    </linearGradient>
    <radialGradient
       gradientUnits="userSpaceOnUse"
       gradientTransform="matrix(2.7192191,0.05316656,-0.06146508,2.6753168,-20.777746,-112.81808)"
       r="11.707812"
       fy="65.488907"
       fx="46.103645"
       cy="65.488907"
       cx="46.103645"
       id="radialGradient896"
       xlink:href="#linearGradient894"
       inkscape:collect="always" />
    <radialGradient
       r="3.0585911"
       fy="65.874184"
       fx="41.335247"
       cy="65.874184"
       cx="41.335247"
       gradientTransform="matrix(3.3745668,-0.38769686,0.41378383,3.6016316,-52.780988,-153.18958)"
       gradientUnits="userSpaceOnUse"
       id="radialGradient932"
       xlink:href="#linearGradient914"
       inkscape:collect="always" />
    <radialGradient
       gradientUnits="userSpaceOnUse"
       gradientTransform="matrix(2.7198298,0,0,0.92055778,-24.995656,2.1215613)"
       r="1.0748698"
       fy="63.698437"
       fx="51.114193"
       cy="63.698437"
       cx="51.114193"
       id="radialGradient946"
       xlink:href="#linearGradient944"
       inkscape:collect="always" />
    <radialGradient
       r="1.0748698"
       fy="63.698437"
       fx="51.114193"
       cy="63.698437"
       cx="51.114193"
       gradientTransform="matrix(2.7198298,0,0,0.92055778,-51.44175,2.2179113)"
       gradientUnits="userSpaceOnUse"
       id="radialGradient952"
       xlink:href="#linearGradient944"
       inkscape:collect="always" />
    <radialGradient
       gradientUnits="userSpaceOnUse"
       gradientTransform="matrix(2.7181848,-0.09454585,0.06146525,1.7671206,-28.272063,-54.186113)"
       r="4.1393366"
       fy="57.213547"
       fx="46.056873"
       cy="57.213547"
       cx="46.056873"
       id="radialGradient974"
       xlink:href="#linearGradient972"
       inkscape:collect="always" />
    <radialGradient
       gradientUnits="userSpaceOnUse"
       gradientTransform="matrix(2.7198317,0.36347958,-0.21666395,1.6212452,-13.29528,-66.009383)"
       r="2.53739"
       fy="53.243679"
       fx="46.210903"
       cy="53.243679"
       cx="46.210903"
       id="radialGradient987"
       xlink:href="#linearGradient985"
       inkscape:collect="always" />
    <radialGradient
       gradientTransform="matrix(3.032357,0.0388764,-0.04079742,3.1821968,-37.444124,-129.54565)"
       gradientUnits="userSpaceOnUse"
       r="1.6536458"
       fy="44.450958"
       fx="46.146591"
       cy="44.450958"
       cx="46.146591"
       id="radialGradient1002"
       xlink:href="#linearGradient1000"
       inkscape:collect="always" />
    <linearGradient
       gradientTransform="matrix(0.78456616,0,0,2.6972817,64.472509,-107.88859)"
       gradientUnits="userSpaceOnUse"
       y2="63.521856"
       x2="46.36674"
       y1="63.521856"
       x1="45.840553"
       id="linearGradient1020"
       xlink:href="#linearGradient1016"
       inkscape:collect="always" />
    <radialGradient
       r="3.0585911"
       fy="65.874184"
       fx="41.335247"
       cy="65.874184"
       cx="41.335247"
       gradientTransform="matrix(3.3745668,-0.38769686,0.41378383,3.6016316,-78.972661,-153.46583)"
       gradientUnits="userSpaceOnUse"
       id="radialGradient1022"
       xlink:href="#linearGradient914"
       inkscape:collect="always" />
    <radialGradient
       gradientUnits="userSpaceOnUse"
       gradientTransform="matrix(0.74182284,-0.02664147,0.01789176,0.49819026,-34.130458,-37.963792)"
       r="42.134765"
       fy="300.59082"
       fx="176.61981"
       cy="300.59082"
       cx="176.61981"
       id="radialGradient1056"
       xlink:href="#linearGradient1054"
       inkscape:collect="always" />
    <radialGradient
       gradientUnits="userSpaceOnUse"
       gradientTransform="matrix(2.7198298,0,0,0.7580764,-24.831182,43.599493)"
       r="2.529868"
       fy="77.922528"
       fx="46.45299"
       cy="77.922528"
       cx="46.45299"
       id="radialGradient1084"
       xlink:href="#linearGradient1082"
       inkscape:collect="always" />
    <radialGradient
       gradientUnits="userSpaceOnUse"
       gradientTransform="matrix(3.5007653,0,0,1.4224746,-61.20977,22.304393)"
       r="8.8633251"
       fy="96.490974"
       fx="46.468147"
       cy="96.490974"
       cx="46.468147"
       id="radialGradient1121"
       xlink:href="#linearGradient1119"
       inkscape:collect="always" />
    <linearGradient
       gradientTransform="matrix(2.2362425,1.5481258,-1.5481258,2.2362425,-24.831182,-109.2653)"
       gradientUnits="userSpaceOnUse"
       y2="47.811098"
       x2="75.832074"
       y1="47.811096"
       x1="67.801682"
       id="linearGradient1140"
       xlink:href="#linearGradient1138"
       inkscape:collect="always" />
    <linearGradient
       gradientTransform="matrix(-2.1574032,1.6562264,1.6562264,2.1574032,215.12235,-114.46309)"
       y2="47.811098"
       x2="75.832074"
       y1="47.811096"
       x1="67.801682"
       gradientUnits="userSpaceOnUse"
       id="linearGradient1150"
       xlink:href="#linearGradient1138"
       inkscape:collect="always" />
    <linearGradient
       gradientTransform="matrix(2.7198298,0,0,2.7198298,-24.831182,-109.26529)"
       gradientUnits="userSpaceOnUse"
       y2="86.022652"
       x2="34.032033"
       y1="86.022652"
       x1="26.292971"
       id="linearGradient1177"
       xlink:href="#linearGradient1173"
       inkscape:collect="always" />
    <linearGradient
       gradientTransform="matrix(2.7198298,0,0,2.7198298,-228.83547,-113.58304)"
       y2="86.022652"
       x2="34.032033"
       y1="86.022652"
       x1="26.292971"
       gradientUnits="userSpaceOnUse"
       id="linearGradient1204"
       xlink:href="#linearGradient1173"
       inkscape:collect="always" />
    <linearGradient
       gradientTransform="matrix(2.7198298,0,0,2.7198298,-228.83547,-113.58304)"
       y2="86.022652"
       x2="34.032033"
       y1="86.022652"
       x1="26.292971"
       gradientUnits="userSpaceOnUse"
       id="linearGradient1206"
       xlink:href="#linearGradient1173"
       inkscape:collect="always" />
    <linearGradient
       gradientTransform="matrix(2.7198298,0,0,2.7198298,-24.831182,-109.26529)"
       y2="86.022652"
       x2="34.032033"
       y1="86.022652"
       x1="26.292971"
       gradientUnits="userSpaceOnUse"
       id="linearGradient1247"
       xlink:href="#linearGradient1173"
       inkscape:collect="always" />
  </defs>
  <sodipodi:namedview
     inkscape:window-maximized="1"
     inkscape:window-y="-8"
     inkscape:window-x="-8"
     inkscape:window-height="745"
     inkscape:window-width="1366"
     showgrid="false"
     inkscape:document-rotation="0"
     inkscape:current-layer="layer1"
     inkscape:document-units="mm"
     inkscape:cy="465.16275"
     inkscape:cx="327.22295"
     inkscape:zoom="0.5"
     inkscape:pageshadow="2"
     inkscape:pageopacity="0.0"
     borderopacity="1.0"
     bordercolor="#666666"
     pagecolor="#ffffff"
     id="base" />
  <metadata
     id="metadata5">
    <rdf:RDF>
      <cc:Work
         rdf:about="">
        <dc:format>image/svg+xml</dc:format>
        <dc:type
           rdf:resource="http://purl.org/dc/dcmitype/StillImage" />
        <dc:title></dc:title>
      </cc:Work>
    </rdf:RDF>
  </metadata>
  <g
     id="layer1"
     inkscape:groupmode="layer"
     inkscape:label="Layer 1">
    <circle
       r="6.3606167"
       style="opacity:1;fill:#282828;fill-opacity:1;stroke-width:0.391655;stroke-linejoin:round"
       id="circle1125"
       cx="119.55482"
       cy="91.475769" />
    <circle
       r="6.3606167"
       cy="92.493454"
       cx="80.500633"
       id="path1123"
       style="opacity:1;fill:#282828;fill-opacity:1;stroke-width:0.391655;stroke-linejoin:round" />
    <ellipse
       ry="12.607858"
       rx="31.028425"
       cy="159.56039"
       cx="101.46432"
       id="path1113"
       style="opacity:1;fill:url(#radialGradient1121);fill-opacity:1;stroke-width:0.50411;stroke-linejoin:round" />
    <path
       sodipodi:nodetypes="ccccscccc"
       d="m 82.721325,86.16399 c -4.375169,11.72722 -7.621648,21.52961 -9.887212,28.18784 -1.229336,3.22928 -1.761661,5.71257 -1.819284,8.30907 0.02916,0.29345 0.07161,0.45368 0.123698,0.67464 0.977075,6.65208 13.665509,14.47021 30.155263,14.47021 16.56043,0 30.60802,-7.17935 30.70899,-15.34724 0.0202,-1.37133 -0.44525,-3.27568 -0.73148,-4.19802 l -13.64691,-32.0965 z"
       style="opacity:1;fill:url(#radialGradient1056);fill-opacity:1;stroke-width:0.391655;stroke-linejoin:round"
       id="path1046" />
    <ellipse
       style="opacity:1;fill:#dedede;fill-opacity:1;stroke-width:0.441753;stroke-linejoin:round"
       id="ellipse1029"
       cx="100.20308"
       cy="86.291901"
       rx="17.450825"
       ry="5.6816635" />
    <path
       sodipodi:nodetypes="ccccccccccc"
       d="m 88.541217,89.01805 0.790356,0.34651 0.852278,0.28681 1.439897,0.42745 -0.910324,0.98827 -12.220133,40.92026 -1.028608,-0.66623 -1.01046,-0.71449 9.333384,-34.45056 1.650986,-5.9836 z"
       style="opacity:1;fill:#6c6c6c;fill-opacity:1;stroke-width:0.354944;stroke-linejoin:round"
       id="rect1060" />
    <ellipse
       ry="4.706008"
       rx="14.454166"
       cy="86.291901"
       cx="100.20308"
       id="path1027"
       style="opacity:1;fill:#919191;fill-opacity:1;stroke-width:0.365894;stroke-linejoin:round" />
    <rect
       y="101.88359"
       x="108.9285"
       height="1.5741723"
       width="7.8258853"
       id="rect1086"
       style="opacity:1;fill:#666666;fill-opacity:1;stroke-width:0.347075;stroke-linejoin:round" />
    <path
       sodipodi:nodetypes="ccccccccccc"
       d="m 110.30471,89.65703 1.45222,-0.53714 0.73214,-0.3639 0.76441,-0.44497 1.3023,1.22937 14.14252,39.60328 -0.60396,0.55997 -0.7735,0.65065 -0.66792,0.52698 -15.14032,-40.27214 z"
       style="opacity:1;fill:#6c6c6c;fill-opacity:1;stroke-width:0.329995;stroke-linejoin:round"
       id="rect1063" />
    <ellipse
       style="opacity:1;fill:#000000;fill-opacity:1;stroke-width:0.337257;stroke-linejoin:round"
       id="ellipse1044"
       cx="100.20308"
       cy="86.291901"
       rx="13.322886"
       ry="4.3376837" />
    <path
       sodipodi:nodetypes="sssss"
       d="m 109.01844,80.355 c 0,2.98077 -3.70513,6.28765 -8.27564,6.28765 -4.57052,0 -8.275654,-3.30688 -8.275654,-6.28765 0,-2.98077 3.705134,-5.39716 8.275654,-5.39716 4.57051,0 8.27564,2.41639 8.27564,5.39716 z"
       style="opacity:1;fill:#808080;fill-opacity:1;stroke-width:0.391655;stroke-linejoin:round"
       id="path1024" />
    <ellipse
       ry="24.230793"
       rx="31.843258"
       cy="58.530022"
       cx="100.56289"
       id="path884"
       style="fill:url(#radialGradient896);fill-opacity:1;stroke-width:0.234881;stroke-linejoin:round" />
    <ellipse
       style="opacity:1;fill:#666666;fill-opacity:1;stroke-width:0.391655;stroke-linejoin:round"
       id="ellipse960"
       cx="72.42263"
       cy="58.018936"
       rx="4.2616134"
       ry="11.194686" />
    <circle
       r="9.6681385"
       cy="66.143974"
       cx="87.593651"
       id="path902"
       style="opacity:1;fill:#000000;fill-opacity:1;stroke-width:0.413415;stroke-linejoin:round" />
    <circle
       r="9.6681385"
       style="opacity:1;fill:#000000;fill-opacity:1;stroke-width:0.413415;stroke-linejoin:round"
       id="circle904"
       cx="113.78534"
       cy="66.330276" />
    <circle
       r="8.3188477"
       cy="66.143974"
       cx="87.593651"
       id="circle922"
       style="opacity:1;fill:url(#radialGradient1022);fill-opacity:1;stroke-width:0.355716;stroke-linejoin:round" />
    <circle
       r="8.3188477"
       style="opacity:1;fill:url(#radialGradient932);fill-opacity:1;stroke-width:0.355716;stroke-linejoin:round"
       id="circle930"
       cx="113.78534"
       cy="66.420219" />
    <ellipse
       style="opacity:1;fill:url(#radialGradient946);fill-opacity:1;stroke-width:0.391655;stroke-linejoin:round"
       id="ellipse938"
       cx="114.02625"
       cy="60.759666"
       rx="2.9234631"
       ry="0.98947978" />
    <ellipse
       ry="0.98947978"
       rx="2.9234631"
       cy="60.855995"
       cx="87.580162"
       id="ellipse950"
       style="opacity:1;fill:url(#radialGradient952);fill-opacity:1;stroke-width:0.391655;stroke-linejoin:round" />
    <circle
       r="0.62966895"
       cy="63.758736"
       cx="83.381912"
       id="path954"
       style="opacity:1;fill:#ace8fa;fill-opacity:1;stroke-width:0.391655;stroke-linejoin:round" />
    <circle
       r="0.62966895"
       style="opacity:1;fill:#ace8fa;fill-opacity:1;stroke-width:0.391655;stroke-linejoin:round"
       id="circle956"
       cx="118.64337"
       cy="64.79319" />
    <ellipse
       ry="11.194686"
       rx="4.2616134"
       cy="58.018936"
       cx="71.27774"
       id="path958"
       style="opacity:1;fill:#000000;fill-opacity:1;stroke-width:0.391655;stroke-linejoin:round" />
    <ellipse
       ry="11.194686"
       rx="4.2616134"
       cy="58.018936"
       cx="129.09575"
       id="ellipse962"
       style="opacity:1;fill:#666666;fill-opacity:1;stroke-width:0.391655;stroke-linejoin:round" />
    <ellipse
       style="opacity:1;fill:#000000;fill-opacity:1;stroke-width:0.391655;stroke-linejoin:round"
       id="ellipse964"
       cx="130.30428"
       cy="58.018936"
       rx="4.2616134"
       ry="11.194686" />
    <ellipse
       ry="4.1344013"
       rx="11.258291"
       cy="40.145596"
       cx="100.56289"
       id="path966"
       style="opacity:1;fill:url(#radialGradient974);fill-opacity:1;stroke-width:0.391655;stroke-linejoin:round" />
    <path
       sodipodi:nodetypes="sssss"
       d="m 107.69227,41.004275 c 0,1.809131 -3.3395,2.607856 -6.94898,2.607856 -3.609475,0 -6.853562,-0.925937 -6.853559,-2.735068 0,-1.809129 3.403102,-5.565541 7.012579,-5.565541 3.60947,0 6.78995,3.883624 6.78996,5.692753 z"
       style="opacity:1;fill:url(#radialGradient987);fill-opacity:1;stroke-width:0.391655;stroke-linejoin:round"
       id="path978" />
    <path
       sodipodi:nodetypes="cccc"
       d="m 103.66805,37.870458 -5.799083,-0.03949 2.661953,-27.469453 z"
       inkscape:transform-center-y="-5.7693869"
       inkscape:transform-center-x="-0.013814855"
       style="opacity:1;fill:#1a1a1a;fill-opacity:1;stroke-width:1.52295;stroke-linejoin:round"
       id="path991" />
    <circle
       r="4.4976354"
       cy="13.790013"
       cx="100.78777"
       id="path994"
       style="opacity:1;fill:url(#radialGradient1002);fill-opacity:1;stroke-width:0.391655;stroke-linejoin:round" />
    <ellipse
       ry="0.41748556"
       rx="2.8993266"
       cy="37.854839"
       cx="100.7683"
       id="path1008"
       style="opacity:1;fill:#1a1a1a;fill-opacity:1;stroke-width:0.393408;stroke-linejoin:round" />
    <rect
       y="44.270973"
       x="99.847328"
       height="38.464752"
       width="1.4311385"
       id="rect1010"
       style="opacity:1;fill:url(#linearGradient1020);fill-opacity:1;stroke-width:0.207747;stroke-linejoin:round" />
    <path
       sodipodi:nodetypes="ccccscccccccc"
       d="m 94.866421,100.47526 v 0 l 0.808748,0.01 c -1.527533,0.23374 -2.039139,1.06243 -2.039085,2.2723 1.45e-4,1.20946 0.663672,2.10884 2.140311,2.10884 h 0.0011 c 0.0063,2.3e-4 0.01252,2.3e-4 0.01904,0 l 11.323415,-0.0481 c 0.0122,0.002 -0.0122,0 0,0 1.75601,-0.0972 2.26999,-1.0661 2.27013,-2.27847 -0.0609,-1.14951 -0.23776,-1.83604 -2.16036,-2.06298 v -0.001 z"
       style="opacity:1;fill:#6c6c6c;fill-opacity:1;stroke-width:0.293823;stroke-linejoin:round"
       id="rect1066" />
    <path
       id="path1076"
       style="opacity:1;fill:url(#radialGradient1084);fill-opacity:1;stroke-width:0.256666;stroke-linejoin:round"
       d="m 95.706977,100.7529 v 0 l 0.70647,0.008 c -1.334357,0.20418 -1.781259,0.92808 -1.781214,1.98494 1.29e-4,1.0565 0.579743,1.84215 1.869639,1.84215 h 9.44e-4 c 0.0057,1.9e-4 0.01088,1.9e-4 0.01659,0 l 9.891404,-0.042 c 0.0106,10e-4 -0.0106,0 0,0 1.53393,-0.0849 1.98292,-0.93128 1.98305,-1.99033 -0.0532,-1.00414 -0.20772,-1.60384 -1.88716,-1.80209 v -9.4e-4 z"
       sodipodi:nodetypes="ccccscccccccc" />
    <path
       sodipodi:nodetypes="sssssss"
       d="m 118.87,135.18118 c 0,1.99714 -0.63909,7.10816 -3.91587,8.39258 -3.12184,1.22369 -8.76702,-1.33129 -13.445,-1.33129 -3.331144,0 -9.400849,2.13086 -12.043924,1.46928 -4.964571,-1.24268 -5.316948,-5.98561 -5.316948,-8.53057 0,-3.89983 7.772729,-7.06128 17.360872,-7.06128 9.58815,0 17.36087,3.16145 17.36087,7.06128 z"
       style="opacity:1;fill:#282828;fill-opacity:1;stroke-width:0.391655;stroke-linejoin:round"
       id="path1090" />
    <path
       id="path1097"
       style="opacity:1;fill:#282828;fill-opacity:1;stroke-width:0.584312;stroke-linejoin:round"
       d="m 113.85557,141.45234 c 0,4.44701 -5.52769,14.23798 -12.34644,14.23798 -6.818755,0 -12.346442,-9.79097 -12.346442,-14.23798 0,-4.44702 5.527689,-8.05203 12.346442,-8.05203 6.81875,0 12.34644,3.60501 12.34644,8.05203 z"
       sodipodi:nodetypes="sssss" />
    <path
       sodipodi:nodetypes="cccccccccc"
       d="m 88.522954,130.49021 0.522725,-0.23619 0.585494,-0.23579 0.465793,-0.17374 0.399143,-0.12084 -0.05246,16.08809 -0.413825,-1.14739 -0.418536,-0.88214 -1.080479,-0.531 z"
       style="opacity:1;fill:#000000;fill-opacity:1;stroke-width:0.391655;stroke-linejoin:round"
       id="rect1099" />
    <path
       sodipodi:nodetypes="ccccccc"
       d="m 95.551438,128.54226 1.475518,-0.18315 1.299301,-0.119 -0.01088,26.73262 -3.463709,-2.58895 v 0 z"
       style="opacity:1;fill:#000000;fill-opacity:1;stroke-width:0.391655;stroke-linejoin:round"
       id="rect1102" />
    <path
       sodipodi:nodetypes="ccccccc"
       d="m 104.57363,128.23032 1.24068,0.10771 1.4617,0.18745 1.30121,23.56068 -1.79925,1.3471 -2.18453,1.40166 z"
       style="opacity:1;fill:#000000;fill-opacity:1;stroke-width:0.391655;stroke-linejoin:round"
       id="rect1104" />
    <path
       sodipodi:nodetypes="cccccccc"
       d="m 112.07221,129.58656 2.34735,0.88253 0.20673,13.21937 -0.63191,0.13135 -0.68404,0.0594 -0.28892,1.09552 -0.69478,1.78273 z"
       style="opacity:1;fill:#000000;fill-opacity:1;stroke-width:0.31617;stroke-linejoin:round"
       id="rect1108" />
    <rect
       transform="rotate(47.395243)"
       y="5.6749558"
       x="117.68317"
       height="9.5506926"
       width="5.1825471"
       id="rect1127"
       style="opacity:1;fill:#282828;fill-opacity:1;stroke-width:0.22794;stroke-linejoin:round" />
    <rect
       style="opacity:1;fill:#282828;fill-opacity:1;stroke-width:0.22794;stroke-linejoin:round"
       id="rect1129"
       width="5.1825471"
       height="9.5506926"
       x="-18.213226"
       y="152.63928"
       transform="matrix(-0.67693708,0.73604089,0.73604089,0.67693708,0,0)" />
    <path
       sodipodi:nodetypes="sssssssssss"
       d="m 70.942563,113.61146 c -1.390943,3.28829 -2.231633,4.50353 -4.416856,7.3183 -2.935485,3.78115 -9.93887,4.71357 -12.599759,3.88246 -2.108134,-0.65847 -5.676807,-3.77836 -6.687773,-5.93871 -1.698528,-3.62958 -0.554098,-7.4618 2.668239,-12.11641 1.516752,-2.19092 5.389192,-5.23972 7.979849,-6.94177 2.417835,-1.58851 5.242689,-3.13569 7.31784,-3.91839 3.534076,-1.33298 7.016153,-2.16854 8.415886,-0.4919 0.585531,0.70136 0.735118,1.23102 0.683518,2.60655 -0.06506,1.73399 -0.2957,3.90706 -0.695584,6.21546 -0.774267,4.46961 -0.374188,3.96792 -2.66536,9.38441 z"
       style="opacity:1;fill:url(#linearGradient1140);fill-opacity:1;stroke-width:0.332292;stroke-linejoin:round"
       id="path1131" />
    <path
       id="path1148"
       style="opacity:1;fill:url(#linearGradient1150);fill-opacity:1;stroke-width:0.332292;stroke-linejoin:round"
       d="m 130.4251,112.85394 c 1.55097,3.2159 2.4504,4.38833 4.77141,7.09223 3.11788,3.63222 10.15865,4.21909 12.77545,3.25813 2.07319,-0.76133 5.48414,-4.05295 6.3876,-6.2604 1.518,-3.70872 0.18659,-7.48003 -3.26085,-11.97054 -1.62265,-2.11367 -5.64036,-4.96835 -8.31157,-6.54094 -2.49303,-1.46768 -5.39056,-2.87407 -7.5017,-3.55377 -3.59534,-1.15756 -7.1143,-1.82088 -8.42988,-0.0774 -0.55033,0.7293 -0.6737,1.26569 -0.55451,2.63701 0.15024,1.7287 0.48748,3.88778 1.00041,6.17373 0.99313,4.42613 0.56886,3.94472 3.12364,9.24198 z"
       sodipodi:nodetypes="sssssssssss" />
    <path
       sodipodi:nodetypes="ssssss"
       d="m 69.279042,116.5031 c 0,2.04394 -3.435278,5.50951 -5.416438,6.82759 -1.900503,1.26443 -4.041164,2.49243 -6.896264,2.49243 -5.831368,0 -10.063885,-4.23592 -10.063885,-8.2406 0,-4.00467 5.266976,-8.24057 11.098342,-8.24057 5.831367,0 11.278245,3.15647 11.278245,7.16115 z"
       style="opacity:1;fill:#333333;fill-opacity:1;stroke-width:0.381584;stroke-linejoin:round"
       id="path1152" />
    <path
       id="path1157"
       style="opacity:1;fill:#333333;fill-opacity:1;stroke-width:0.401931;stroke-linejoin:round"
       d="m 134.29066,118.1509 c 0.37493,2.23537 4.33004,4.97252 6.51366,6.00854 2.09473,0.99384 4.92737,1.24492 7.72581,0.66053 5.71561,-1.19358 7.25288,-6.27064 6.51826,-10.65037 -0.13463,-0.80336 -1.35821,-2.78416 -1.7288,-3.35743 -1.64977,-2.55211 -6.89364,-5.00073 -11.56084,-4.02608 -5.7156,1.19359 -8.20272,6.98508 -7.46809,11.36481 z"
       sodipodi:nodetypes="sssssss" />
    <circle
       r="10.524467"
       cy="124.70169"
       cx="57.205681"
       id="path1165"
       style="opacity:1;fill:url(#linearGradient1247);fill-opacity:1;stroke-width:0.341967;stroke-linejoin:round" />
    <circle
       r="4.5796447"
       cy="126.33198"
       cx="59.319756"
       id="path1179"
       style="opacity:1;fill:#000000;fill-opacity:1;stroke-width:0.391655;stroke-linejoin:round" />
    <path
       sodipodi:nodetypes="cccccccc"
       d="m 55.48022,127.8738 2.153631,2.07338 -4.337489,4.52694 -0.834134,-0.38227 -0.713509,-0.405 -0.656769,-0.4179 -0.482125,-0.37369 z"
       style="opacity:1;fill:#000000;fill-opacity:1;stroke-width:0.391655;stroke-linejoin:round"
       id="rect1181" />
    <circle
       r="10.524467"
       style="opacity:1;fill:url(#linearGradient1177);fill-opacity:1;stroke-width:0.341967;stroke-linejoin:round"
       id="circle1184"
       cx="57.205681"
       cy="124.70169" />
    <circle
       r="4.5796447"
       style="opacity:1;fill:#000000;fill-opacity:1;stroke-width:0.391655;stroke-linejoin:round"
       id="circle1186"
       cx="59.319756"
       cy="126.33198" />
    <path
       id="path1188"
       style="opacity:1;fill:#000000;fill-opacity:1;stroke-width:0.391655;stroke-linejoin:round"
       d="m 55.845955,128.28724 2.552494,2.24463 c -0.688029,0.95184 -1.162286,1.39638 -2.103358,2.26945 -1.301658,0.91269 -1.86168,1.21088 -2.998737,1.6728 l -0.834132,-0.38227 -0.713511,-0.40502 -0.656769,-0.41788 -0.482125,-0.3737 c 1.398925,-0.65167 2.016183,-0.89754 3.550795,-2.19601 1.061152,-0.80371 1.379797,-1.49293 1.685335,-2.41201 z"
       sodipodi:nodetypes="cccccccccc" />
    <circle
       r="10.524467"
       transform="scale(-1,1)"
       style="opacity:1;fill:url(#linearGradient1206);fill-opacity:1;stroke-width:0.341967;stroke-linejoin:round"
       id="circle1192"
       cx="-146.79861"
       cy="120.38399" />
    <circle
       r="4.5796447"
       transform="scale(-1,1)"
       style="opacity:1;fill:#000000;fill-opacity:1;stroke-width:0.391655;stroke-linejoin:round"
       id="circle1194"
       cx="-144.68446"
       cy="122.01424" />
    <path
       id="path1196"
       style="opacity:1;fill:#000000;fill-opacity:1;stroke-width:0.391655;stroke-linejoin:round"
       d="m 148.52403,123.55607 -2.15361,2.07338 4.33747,4.52694 0.83415,-0.38227 0.71352,-0.405 0.65675,-0.4179 0.48213,-0.3737 z"
       sodipodi:nodetypes="cccccccc" />
    <circle
       r="10.524467"
       transform="scale(-1,1)"
       cy="120.38399"
       cx="-146.79861"
       id="circle1198"
       style="opacity:1;fill:url(#linearGradient1204);fill-opacity:1;stroke-width:0.341967;stroke-linejoin:round" />
    <circle
       r="4.5796447"
       transform="scale(-1,1)"
       cy="122.01424"
       cx="-144.68446"
       id="circle1200"
       style="opacity:1;fill:#000000;fill-opacity:1;stroke-width:0.391655;stroke-linejoin:round" />
    <path
       sodipodi:nodetypes="ccccccccccc"
       d="m 149.21259,130.69831 2.05274,-0.81312 1.64698,-0.93397 c -1.22569,-0.33612 -2.74352,-1.38697 -3.59746,-2.71794 -0.66562,-0.91856 -0.56448,-1.8719 -0.79082,-2.67721 l -0.83415,0.38227 -0.71352,0.405 -0.65675,0.4179 -0.48213,0.3737 c 0.0704,0.96205 0.24631,1.67175 0.96209,3.21115 0.64842,1.22728 1.04019,1.84493 2.41302,2.35222 z"
       style="opacity:1;fill:#000000;fill-opacity:1;stroke-width:0.391655;stroke-linejoin:round"
       id="path1202" />
  </g>
</svg>
